/* XPM */
static char *close_active[] = {
/* columns rows colors chars-per-pixel */
"28 32 24 1 ",
"  c #1E1F29",
". c #2D2E37",
"X c #43272A",
"o c #44282A",
"O c #45282A",
"+ c #46282A",
"@ c #47282A",
"# c #502A2B",
"$ c #522B2B",
"% c #542B2A",
"& c #70322B",
"* c #76332B",
"= c #72312C",
"- c #73312C",
"; c #77332C",
": c #78332C",
"> c #87372C",
", c #89362C",
"< c #CF472E",
"1 c #D1462D",
"2 c #D0462E",
"3 c #D2472E",
"4 c #FB502F",
"5 c #FF512F",
/* pixels */
"............................",
"                            ",
"                            ",
"                            ",
"                            ",
"                            ",
"                            ",
"                            ",
"            @:>:+           ",
"          %3555551$         ",
"         -455555554=        ",
"        %45555555554$       ",
"        3555555555552       ",
"       @5555555555555o      ",
"       :5555555555555;      ",
"       ,5555555555555,      ",
"       :5555555555555*      ",
"       +5555555555555X      ",
"        155555555555<       ",
"        $45555555554#       ",
"         =455555554&        ",
"          $255555<#         ",
"            O*>*o           ",
"                            ",
"                            ",
"                            ",
"                            ",
"                            ",
"                            ",
"                            ",
"                            ",
"                            "
};
