/* XPM */
static char *close_prelight[] = {
/* columns rows colors chars-per-pixel */
"28 32 47 1 ",
"  c #191A23",
". c #1A1A23",
"X c #1A1B23",
"o c #1A1B24",
"O c #1B1B24",
"+ c #1B1C24",
"@ c #1B1C25",
"# c #1C1C26",
"$ c #1C1D26",
"% c #1C1D27",
"& c #1D1E27",
"* c #1D1E28",
"= c #1E1F29",
"- c #3F2325",
"; c #2D2E37",
": c #422325",
"> c #402425",
", c #412425",
"< c #422425",
"1 c #4C2626",
"2 c #4E2726",
"3 c #502726",
"4 c #6D2F27",
"5 c #6F2E28",
"6 c #702E28",
"7 c #733027",
"8 c #743028",
"9 c #753028",
"0 c #9F1D2B",
"q c #A01E2B",
"w c #843429",
"e c #863428",
"r c #C12F2C",
"t c #D73B2D",
"y c #D83C2D",
"u c #D83C2E",
"i c #D93C2E",
"p c #CF452C",
"a c #CE462C",
"s c #D0452C",
"d c #D1462D",
"f c #EE482E",
"g c #EF482E",
"h c #FA502F",
"j c #FB502F",
"k c #FD502F",
"l c #FF512F",
/* pixels */
";;;;;;;;;;;;;;;;;;;;;;;;;;;;",
"============================",
"============================",
"============================",
"==========***&&***==========",
"========*%$@@++@@$%*========",
"======*%#+oXX..XXoO@%*======",
"=====*$@o.        .o@$*=====",
"====*$OX    <9w9:   XO$*====",
"===*$oX   3dllllls2  Xo$*===",
"===%@X   6jlllllllh5  X@%===",
"==*@o   3jkflllllfkh2  o#*==",
"==%O.   dlfqullluqflp  .+&==",
"=*$o   <llliqtliqtlll>  o$*=",
"=*@X   9lllluqrqullll8  X@*=",
"=*@X   elllllr0rllllle  X@*=",
"=&+.   9llllyqrqyllll7  .+*=",
"=*+.   :llliqtliqtlll-  .+*=",
"=*@X    slfqullluqgla   X@*=",
"=*@X    2hkflllllfkh1   X@*=",
"=*$o     5hlllllllh4    o$*=",
"==&+.     2pllllla1    .+&==",
"==*@o       ,7w7>      o#*==",
"===%@X                X@&===",
"===*$oX              Xo$*===",
"====*$OX            XO$*====",
"=====*$@oX        .o@$*=====",
"======*&#+oXX..XXo+@%*======",
"========*&$@@@@@@$%*========",
"==========***&&***==========",
"============================",
"============================"
};
