/* XPM */
static char *hide_prelight[] = {
/* columns rows colors chars-per-pixel */
"28 32 31 1 ",
"  c #1E1F29",
". c #2D2E37",
"X c #434437",
"o c #444538",
"O c #454638",
"+ c #464739",
"@ c #474739",
"# c #50513D",
"$ c #52533E",
"% c #54553E",
"& c #707149",
"* c #72724A",
"= c #73734B",
"- c #76774C",
"; c #77784C",
": c #78794D",
"> c #975914",
", c #878853",
"< c #898954",
"1 c #CCAE4C",
"2 c #CCAE4D",
"3 c #CFD06F",
"4 c #D1D16F",
"5 c #D0D070",
"6 c #D2D270",
"7 c #F1E974",
"8 c #FDFC7F",
"9 c #FBFB80",
"0 c #FBFB81",
"q c #FDFC80",
"w c #FFFF82",
/* pixels */
"............................",
"                            ",
"                            ",
"                            ",
"                            ",
"                            ",
"                            ",
"                            ",
"            @:,:+           ",
"          %6wwwww4$         ",
"         =0wwwwwww9*        ",
"        %0wwwwwwwww9$       ",
"        6wwwwwwwwwww5       ",
"       @wwwwwwwwwwwwwo      ",
"       :w87777777778w;      ",
"       <w1>>>>>>>>>2w<      ",
"       :wq777777777qw-      ",
"       +wwwwwwwwwwwwwX      ",
"        4wwwwwwwwwww3       ",
"        $9wwwwwwwww9#       ",
"         *9wwwwwww9&        ",
"          $5wwwww3#         ",
"            O-,-o           ",
"                            ",
"                            ",
"                            ",
"                            ",
"                            ",
"                            ",
"                            ",
"                            ",
"                            "
};
