/* XPM */
static char *maximize_active[] = {
/* columns rows colors chars-per-pixel */
"28 32 27 1 ",
"  c #1E1F29",
". c #2D2E37",
"X c #36443E",
"o c #37453E",
"O c #38463F",
"+ c #384740",
"@ c #394740",
"# c #3F5146",
"$ c #405347",
"% c #425547",
"& c #56735A",
"* c #57745B",
"= c #58775B",
"- c #58755C",
"; c #58785C",
": c #59795D",
"> c #638865",
", c #648966",
"< c #99DB94",
"1 c #9ADB95",
"2 c #9BDC95",
"3 c #9BDD95",
"4 c #9CDD95",
"5 c #B0FDA8",
"6 c #B1FDA8",
"7 c #B2FDA8",
"8 c #B2FFA9",
/* pixels */
"............................",
"                            ",
"                            ",
"                            ",
"                            ",
"                            ",
"                            ",
"                            ",
"            @:>:+           ",
"          %4888882$         ",
"         -588888886*        ",
"        %58888888886$       ",
"        3888888888881       ",
"       @8888888888888o      ",
"       :8888888888888;      ",
"       ,8888888888888,      ",
"       :8888888888888=      ",
"       +8888888888888X      ",
"        188888888888<       ",
"        $68888888887#       ",
"         *688888887&        ",
"          $188888<#         ",
"            O=>=o           ",
"                            ",
"                            ",
"                            ",
"                            ",
"                            ",
"                            ",
"                            ",
"                            ",
"                            "
};
